# xmcd CD database file
#
# Track frame offsets:
#	150
#	14211
#	54343
#	67122
#	90586
#	103256
#	117306
#	130953
#	165751
#	208774
#	223284
#	248189
#	287866
#
# Disc length: 4300 seconds
#
# Revision: 1
# Processed by: cddbd v1.4PL0 Copyright (c) Steve Scherf et al.
# Submitted via: CDex 1.50beta9
#
DISCID=ca10ca0d
DTITLE=Thelonious Monk - 85th Birthday Celebration - CD 1: 1941 - 1956: Monk's Dream
DYEAR=2002
DGENRE=Jazz
TTITLE0=Little Rootie Tootie
TTITLE1=Swing To Bop (Improvisation)
TTITLE2=Flyin' Hawk
TTITLE3=Hackensack
TTITLE4=These Foolish Things
TTITLE5=Monk's Dream
TTITLE6=Just A Gigolo 
TTITLE7=I Want To Be Happy 
TTITLE8=Bemsha Swing
TTITLE9=Mood Indigo
TTITLE10=Honeysuckle Rose
TTITLE11=Pannonica
TTITLE12=Brilliant Corners
EXTD=YEAR: 2002
EXTT0=
EXTT1=
EXTT2=
EXTT3=
EXTT4=
EXTT5=
EXTT6=
EXTT7=
EXTT8=
EXTT9=
EXTT10=
EXTT11=
EXTT12=
PLAYORDER=
